<svg xmlns="http://www.w3.org/2000/svg" viewBox="0 0 240 240" role="img" aria-label="goalnight">
  

  
  <path d="M 70 64 L 60 28 L 92 52 Q 110 46, 120 46 Q 130 46, 148 52 L 180 28 L 170 64&#xA;           C 195 84, 200 130, 178 152&#xA;           C 178 168, 170 184, 156 192&#xA;           C 148 200, 132 206, 120 206&#xA;           C 108 206, 92 200, 84 192&#xA;           C 70 184, 62 168, 62 152&#xA;           C 40 130, 45 84, 70 64 Z" fill="#ededea"></path>

  
  <path d="M 70 92 Q 95 76, 120 84 Q 145 76, 170 92 Q 178 124, 158 142&#xA;           Q 140 152, 120 148 Q 100 152, 82 142 Q 62 124, 70 92 Z" fill="#d8d4cc" opacity="0.55"></path>

  
  <circle cx="94" cy="114" r="16" fill="#F5B23E"></circle>
  <circle cx="146" cy="114" r="16" fill="#F5B23E"></circle>

  
  <g stroke="#0d0c0a" stroke-width="2.6" fill="none" stroke-linecap="round">
    <circle cx="94" cy="114" r="16"></circle>
    <circle cx="146" cy="114" r="16"></circle>
    <path d="M 110 114 L 130 114"></path>
    <path d="M 78 114 Q 70 110, 64 108"></path>
    <path d="M 162 114 Q 170 110, 176 108"></path>
  </g>

  
  <defs>
    <clipPath id="lensL"><circle cx="94" cy="114" r="14.5"></circle></clipPath>
    <clipPath id="lensR"><circle cx="146" cy="114" r="14.5"></circle></clipPath>
  </defs>
  <g clip-path="url(#lensL)" fill="#0d0c0a" opacity="0.7">
    <rect x="82" y="106" width="11" height="1.8"></rect>
    <rect x="82" y="111" width="17" height="1.8"></rect>
    <rect x="82" y="116" width="8" height="1.8"></rect>
    <rect x="82" y="121" width="13" height="1.8"></rect>
  </g>
  <g clip-path="url(#lensR)" fill="#0d0c0a" opacity="0.7">
    <rect x="134" y="106" width="14" height="1.8"></rect>
    <rect x="134" y="111" width="8" height="1.8"></rect>
    <rect x="134" y="116" width="17" height="1.8"></rect>
    <rect x="134" y="121" width="11" height="1.8"></rect>
  </g>

  
  <circle cx="94" cy="116" r="2.4" fill="#0d0c0a"></circle>
  <circle cx="146" cy="116" r="2.4" fill="#0d0c0a"></circle>

  
  <path d="M 120 138 Q 114 144, 116 152 Q 120 156, 124 152 Q 126 144, 120 138 Z" fill="#0d0c0a"></path>
</svg>